<svg version="1.1" xmlns="http://www.w3.org/2000/svg" xmlns:xlink="http://www.w3.org/1999/xlink" x="0px" y="0px"
	 viewBox="0 0 969.3 256" style="enable-background:new 0 0 969.3 256;" xml:space="preserve">
<style type="text/css">
	.st0{fill:#B71237;stroke:#231F20;stroke-width:2;}
	.st1{fill:#FFFFFF;}
	.st2{fill:none;stroke:#000000;stroke-width:0.75;}
	.st3{stroke:#000000;stroke-width:0.1462;}
	.st4{stroke:#000000;stroke-width:0.149;}
</style>
<g>
	<g>
		<path id="Shield_Shape" class="st0" d="M106.2,1.6l-105,0L1,85.6c0,103,103.3,168.6,104.3,169.2l0.3,0.2c0.3,0,0.9-0.5,0.9-0.5
			c17.6-11.5,105.1-73.6,105.1-168.5l0-84.4C211.4,1.5,106.2,1.6,106.2,1.6z M211,76H3.1V63.9H211V76z"/>
		<path class="st1" d="M46.1,85.7c0,0.1-0.3,1.3-0.3,1.3c-0.2,0.8-0.7,1.4-1.5,1.2l-3-0.5c-1.2-0.3-2.3-0.6-3.2-0.3
			c-0.4,0.3-1.1,0.8-1.7,1.5c0.2,0.1,0.5,0.2,0.5,0.2c0.8,0.3,2.2,0.8,2.6,2.5c0,1.3,0.8,2.3,1.5,3.2l0.5,0.8
			c0.2,0.3,0.4,0.6,0.4,0.9c0,0.2-0.1,0.5-0.3,0.7l-1.4,1.6c0,0-0.8,0.8-0.8,0.9c0,0-0.6,1.6-1,2.6c0.3,0.6,0.7,1.1,1,1.2
			c1.2-0.3,2.4-0.2,3.3,0.1l2,0.2c-0.1,0,0.5,0,0.4,0l0.8-0.1c0.9-0.1,2.1-0.3,3,0.5c0,0,0.9,1.9,1,2c0.2,0.6,0.3,1.2,0.3,1.7
			c0,0.8-0.1,1.5-0.3,2.1l-0.2,1.1c0,0.2-0.1,0.5-0.3,0.7c-1.9,2.7-4.4,4.9-7.3,6.3c0.2-0.1,0.2-0.1,0.2-0.1c0,0-0.1,0.2-0.1,0.3
			c0,0.1,0,0.1,0,0.2c0.4,0.3,1.5,0.2,2.3,0.1l0.8-0.1c1.3-0.1,2.5-0.5,3.8-1l4-1.1c0.7-0.2,1.2,0.2,1.5,0.8c0.8,1.5,1.7,2.6,2.5,3
			c-0.1-0.1,0.1-0.1,0.7-0.7c0.8-0.7,2.1-1.8,4-1c0.1,0.1,0.3,0.1,0.4,0.2c1.3,1,1.7,2.5,2.1,3.6c0.2,0.9,0.5,1.6,1,2.1
			c0.2,0.2,0.4,0.5,0.4,0.9c0,0.1,0,0.3,0,0.4c0,1.5-1.3,2.1-1.8,2.3l-0.2,0.1c-0.1,0.1-0.3,0.2-0.4,0.2l-3.3,0.6
			c-1.2,0.1-2.1,0.3-2.8,0.6c0.1,0.1,0.2,0.3,0.4,0.4c1.6,0.8,3.5,1.1,5.6,1.5l1.1,0.2c-0.1,0,2.6-0.1,2.6-0.1l4.2,0.1
			c0.6,0,0.9,0.3,1.1,0.8c0.3,0.5,0.1,1-0.2,1.5l-0.7,1.1c-0.1,0.2-0.3,0.3-0.4,0.5l-6.7,4.5c-0.3,0.1-4,1.5-4,1.5l-5.2,2
			c-0.1,0-0.3,0.1-0.4,0.1c-3,0.8-5.1-0.9-6.8-2.2c-1.2-1-2.2-1.8-3.4-1.7c-1.2,0-2,0.3-3,1.1c-0.3,0.3-0.4,0.8-0.4,1.4
			c0,0.2,0,0.4,0.1,0.5c0.1,0.1,0.3,0.1,0.3,0.1c0.6,0.2,2.1,0.8,2.1,2.6c-0.1,2.3-1.1,4.2-2,6c-0.8,1.6-1.6,3-1.7,4.7
			c0,0.1,0,0.2,0,0.3c0,0.3,0.1,0.7,0.3,0.7c0.2,0.1,0.2,0.1,0.2,0.1c0.1,0,0.4-0.1,0.5-0.1c0,0,0.4-0.6,0.4-0.6
			c0.4-0.7,1-1.8,2.6-2.1c0.2,0,0.3,0,0.5,0c2.7,0.3,4.2,0,5.2-1c0.2-0.2,0.5-0.4,0.9-0.5c0.8-0.1,1.7,0.1,2.3,0.7
			c0.7,0.6,1.1,1.4,1.1,2.2c0,0,0,0.4,0.1,0.7c1.6-0.3,2.8-1.8,4.1-4.1l0.5-0.9c0.2-0.3,0.7-0.6,1-0.7l1.1-0.3c1.2-0.4,3-1,4.7,0.1
			c0.3,0.2,0.6,0.6,0.7,0.9c0.1,0.4,0.1,0.8,0.1,1.2c0,1.4-0.6,2.6-1.1,3.6c0,0-0.3,0.7-0.5,1.2c2.6-0.6,4.4-2.8,6.3-5.3l1.1-1.4
			c0.3-0.8,1.2-2.5,3.2-2.5c0.2,0,0.3,0,0.4,0.1c0.9,0.3,1.3,0,2.5-1.8l2-2.3c0.3-0.3,0.5-0.3,0.9-0.3h0.8c0.4,0,0.8-0.1,1.1,0.2
			c0.3,0.3,0.4,0.5,0.4,0.9l0,2c0,0,0,0.1,0,0.1c0.2-0.1,1.6-0.6,2-0.8c0.1,0,2.8-1.8,2.8-1.8c0.4-0.2,0.9-0.3,1.3-0.2l10.4,2.7
			c2.1,0.8,2.5,2.3,2.5,3.5c0,0.5-0.1,0.9-0.1,1.2c-0.1,0.4-0.1,0.7-0.1,1c0,0.3,0.1,0.5,0.2,0.6c0.3,0.3,0.4,0.7,0.4,1.1
			c0,0.2,0,0.4-0.1,0.6c-0.4,1-1.5,2.2-4.3,2.2c0,0-5.3,0.3-5.3,0.3c-4.4,0.1-8.5,0.1-11.5,3c0,0-2.8,2.9-2.8,2.9
			c-0.3,0.3-0.6,0.4-1,0.4c-2,0.1-3.5,1-5.3,2.2c-1.6,1-3.2,2-5.3,2.4c-1.5,0.8-3.2,0.9-4.6,0.8c-1.2-0.1-2,0-2.5,0.2
			c1.4,1.6,3.9,2.4,6.2,3c0.2,0.1,1.3,0.2,1.3,0.2c1.1,0.1,2.8,0.1,3.6,1.8c0.1,0.2,0.1,0.4,0.2,0.5c0.1,1.4,0.4,2,0.9,2.2
			c0.1-0.1,0.2-0.1,0.2-0.1c0.5-0.3,1.9-1.2,3.4,0.1c0.2,0.2,2.5,2.4,2.5,2.4l2.7,2.8c0.5,0.5,0.4,1,0.1,1.6
			c-1.2,2.2-3.6,1.9-5.1,1.6l-1.2-0.1c-0.1-0.1-1.6,0.1-1.6,0.1c-2.2,0.4-5.3,0.9-7.4-1.6c0.1,0.1,0.2,0.2,0.3,0.3l-2.1-1.7
			c-1.7-1.5-3.2-2.8-5.2-2.8c-2.1,0.6-3.1,1.3-3.3,2.4c0,0,0,0.1,0,0.1c0,0,0.5,0.6,0.5,0.6l0.9,1c0.2,0.3,0.3,0.5,0.3,0.9
			c0,0.1,0,0.2,0,0.3c0,0.4-0.4,0.8-0.7,1c-1.8,1.2-3.7,2.9-3.7,5.1c0,0.3,0,0.6,0.1,0.8c0,0,0.1,0.2,0.2,0.3
			c0.2-0.1,0.7-0.2,0.7-0.2c0.8-0.3,2-0.8,3.4,0c0.5,0.2,0.7,0.6,0.8,1.1l0.1,1.6c0.1,1.8,0.3,2.6,0.9,3c0.4-0.2,0.8-0.3,0.8-0.3
			c1.2-0.6,3-1.6,5.1,0c0.4,0.1,0.9-0.1,2.2-0.8l2-0.9c0.2-0.1,0.2-0.1,0.4-0.1c3.7,0,5.2,3.2,6.2,5.3l0,0c0.1,0,0.1,0.1,0.1,0.1
			c1.6,1.3,3,2.2,4.2,1.8c0.1-0.2,0.1-0.3,0.1-0.5c0-0.4-0.1-0.8-0.2-1.3c-0.1-0.5-0.2-1-0.2-1.6c0-1.3,0.4-2.7,2.3-3.6
			c0.2-0.1,3.7-0.3,3.7-0.3l2.2-0.1c0.1,0,0.4,0,0.5,0c3.2,0.3,5.7,0.4,6.8-1.9c0.1-0.1,2.3-3.9,2.7-4.5c0.1-0.4,0.5-2.6,0.5-2.6
			c0.1-0.6,0.5-1,1.1-1.2c1.2-0.4,2.3,0.1,3.3,0.4c0,0,0.5,0.1,0.8,0.2c-0.5-1.8-0.9-3.6-0.9-5.5c0-0.9,0.1-1.9,0.2-2.8
			c0.7-2.6,1.8-4.7,3.3-6.2c0.4-0.4,1.1-0.6,1.7-0.3l0.7,0.3c0.5,0.2,0.8,0.6,0.9,1.1l0.7,3.4c0.4,2.2,0.8,4.3,1.7,6.3
			c0.2,0.3,0.2,0.4,0.1,0.8l-1.3,5.1l-1.1,4c-0.9,3.7-3.5,6.8-7,8.6c0,0-0.2,0.3-0.1,0.5c0,0.1,0.8,0,1.4,0c0,0,0.9,0,1.4,0
			c3.9-0.5,7.5-2.4,10.2-5.3c0.4-0.4,1-0.6,1.5-0.4c0.8,0.2,1.4-0.1,2.4-0.7c1.2-0.7,3.1-1.7,5.3-0.4c0.9,0.6,2.1,0.6,3.4,0.4
			c2.1-0.2,5.5-0.5,6.4,3.5c0,0.1,0,0.5,0,0.6l0.1,1.9c0.2,1.9,0.7,5.4-3.1,6.5c-0.3,0.1-0.3,0.1-0.6,0l-3.9-1.4
			c-3-1.5-4.4-1.9-5.9-0.1c-0.4,0.4-0.8,0.9-0.6,1.3c0.5,0.9,1.8,3.2-0.1,4.9c0.1-0.1,0.2-0.2,0.3-0.4l-0.2,0.4
			c-1,1.7-1.6,2.9-1.2,4.1c0,0,0.2,0.3,1.5,0c1.6-0.6,3.2,0,4.6,0.5l1.9,0.6c0.2,0.1,0.7,0.2,0.8,0.3l0.6,0.5c1.2,1,2.4,1.8,3.7,2
			c0.1-0.1,0.1-0.3,0.1-0.3l0.8-1.7c0.2-0.2,2.6-1.4,2.6-1.4c1.6-0.6,1.7-0.8,1.7-1.4c0.5-2.5,2.2-4.8,4.7-6.3
			c0.2-0.1,0.6-0.2,0.9-0.2c0.6,0,2.3-0.6,3.3-1.3c0,0-0.2-0.2-0.2-0.2l-0.6-0.7c-0.2-0.2-0.5-0.6-0.5-0.9c-0.1-0.4-0.1-0.7-0.1-1.1
			c0-1.8,0.9-3.2,1.7-4.4c0.8-1.2,1.2-2,1.2-2.7c0-0.4-0.2-0.9-0.5-1.4c-0.1-0.2-0.2-0.2-0.2-0.5l-0.4-2.5c-0.2-1.6-0.4-3-1.5-3.8
			c-0.1,0-2.7-1.4-2.7-1.4l-2.9-1.4c-0.5-0.3-0.7-0.7-0.7-1.3c0-1.3,0.9-2.1,2.5-2.3l0.4-0.1c1.9-0.5,3.5,0.1,4.8,0.6
			c1.3,0.5,1.7,0.5,2.1,0.3c-0.2-1.1-1.3-2.2-2.2-3.2c-1.7-1.2-3.8-1.7-6-2.2c-3.4-0.8-6.9-1.6-9.2-4.9c-0.2-0.3-0.3-0.6-0.3-0.9
			c0-0.4,0.1-0.8,0.4-1.1l0.4-0.4c0.4-0.4,0.9-0.5,1.4-0.4c4.2,0.9,8.4,0,11.1-2.4c1.7-2.2,3.8-4.8,7-5.9c2.3-1.8,2.8-4.8,2.8-8.7
			c0.2-2,1-3.7,2.4-5.1c0.1-0.1,3-1.5,3-1.5c1-0.3,1.3-0.5,1.5-0.6c-1.8-0.9-3.7-1.7-5.8-1.5c-0.3,0-0.6,0-0.9-0.2
			c-0.9-0.5-1.2-1.2-1.2-1.7c0-0.1,0-0.2,0-0.3c0-1,0.8-1.8,1.2-2.2l0.2-0.2c0.1-0.1,0.3-0.3,0.4-0.4l3.3-1.9c4.3-2.3,7-4,7-7.6
			c0,0,0-0.1,0-0.1c-0.1-0.2-0.1-0.3-0.1-0.4c-0.5,0.2-1,0.4-1.6,0.9l-2.3,1.5c-2.1,1.2-4.5,1.7-6.8,2.2c-2.3,0.5-4.5,1-6.3,2.1
			c-0.2,0.1-0.5,0.2-0.8,0.2c-0.9,0-1.6-0.5-1.9-1.2c-0.1-0.3-0.2-0.6-0.2-0.9c0-0.7,0.3-1.4,0.7-1.9c0.7-1,1.9-1.6,2.9-2.2
			c1.2-0.7,2-1.2,2.4-2.1c0,0,0.4-1.2,0.4-1.2c0.6-1.9,1.4-4.1,3.8-5.1c0.3-0.2,2.1-1.1,2.1-1.1c0.5-0.2,0.6-0.4,0.9-0.5
			c-0.1-0.1-0.1-0.1-0.3-0.2c-3.7-1.1-7.2,1.7-9,3.5c-0.1,0.1-0.3,0.2-0.5,0.3l-1.4,0.6c-2.4,1-4.9,2-6.5,3.7
			c-0.2,0.2-0.4,0.3-0.6,0.4c-0.7,0.2-1.5,0.1-2.1-0.3c-0.6-0.4-1-1.2-1-1.9c-0.6-5.7,3.9-9.8,7.6-13.1l0.9-0.8
			c0.1-0.1,0.5-0.3,0.6-0.3l2.2-1.2c1.7-1.1,3.9-2.5,6.6-1.2c2.1,1.1,3.8,1.9,5.6,1.3c1.2-0.4,1.9-1.5,2.8-2.7
			c0.9-1.2,1.8-2.5,3.3-3.4c1.6-0.6,2.9-0.2,3.9,0.2c0.4,0.1,1.2,0.4,1.5,0.3c0,0,0.2-0.3,0.2-0.3c0-0.2,0.1-0.3,0.1-0.4
			c0-1-0.7-2-1.8-3.4l-1.3-1.8c-0.2-0.2-0.2-0.5-0.2-0.8c0-0.2,0-0.4,0.1-0.6c0.4-1.1,0.6-2.2,0.6-3.4c0-2.7-1.1-5.3-3.2-7.1
			c-0.6-0.3-2-0.9-3.4-0.9c0.2,0.3,0.5,0.7,0.5,0.7l1.3,2.9c0,0.3,0,0.7,0,1c0,6.3-5.4,9-9.8,11.2l-3.8,2.1
			c-8.9,4.5-20.6,11.6-21.2,23.3c0.1,6,2.6,11.8,7.2,16.5c0.1,0.1,0.2,0.2,0.2,0.3l1.6,2.6c1.8,2.8,3.8,5.8,3.8,9.4
			c0,0.9-0.1,1.8-0.4,2.8c-1.6,3.6-5.6,3.6-7.1,3.6c-8.8-0.6-13.5-9.4-17-15.9l-0.5-1c-0.1-0.1-0.7-1.5-0.7-1.5c-1-2-2-4.1-2.2-6.7
			c0-0.5,0.1-0.9,0.4-1.2c0.4-0.4,1.6-1.3,3.2-0.2c0.2,0.1,1.8,2.6,1.8,2.6c0.2,0.5,0.3,0.7,0.5,0.9c0.1-0.4,0.4-0.9,0.4-1.3
			c0-1.5-0.6-3.2-1.3-4.8l-0.2-0.5c-0.5-0.8-1.4-1.6-2.4-2.5c-1.3-1.2-2.7-2.4-3.4-4.1c-0.1-0.2-0.1-0.3-0.1-0.5c0-0.1,0-0.2,0-0.2
			c0-2.1,1.8-2.6,2.6-2.8c0,0,0.3-0.1,0.4-0.1c-0.6-2.2-1-4.6-1-7c0-1.2,0.1-2.4,0.2-3.6c0,0,0-0.1,0-0.1c0-0.1,0-0.1,0-0.1
			c0,0,0,0,0.1-0.1l2-2.1c0.6-0.4,0.7-0.5,0.7-0.6c-0.7-2.6-0.9-5.1-0.9-7.6c0-1,0-2,0.1-3c0-0.2,0.7-2.5,0.7-2.5
			c0.4-1,0.7-1.8,0.7-2.5c0-0.3-0.1-0.5-0.2-0.7c-1.4-0.8-1.6-2.3-1.7-3.1c0,0-0.1-0.8-0.1-0.8c0,0-0.1,0-0.1,0
			c0.2,0.1,0.2,0.1,0.4,0.1c-3.7,0-6.6-1.4-9.4-2.7l-3.2-1.4c-0.7-0.2-1.5,0.1-2.6,0.6l-1.7,0.6c-0.1,0-1.8,0.3-1.8,0.3
			c-1.9,0.3-3.5,0.6-4.6,1.7c-0.6,0.7-0.6,1.6-0.6,3.2l0,1c0,0.2,0,0.3-0.1,0.5c-0.3,0.9-0.9,1.3-1.3,1.5c-1,0.4-1.9-0.1-2.4-0.4
			l-0.2-0.1c-2.7-1.5-3.8-4.2-3.1-7.1c0.1-0.5-0.3-0.9-0.5-1c-0.7-0.4-2-0.8-3-0.4c-0.9,0.3-1.3,1.2-1.9,2.7c0,0-0.2,0.5-0.4,0.8
			c0,0.1,0,0.2,0,0.3c0,1,0.2,2,0.6,2.6c1.2,1.2,3,2.2,4.8,3.2l4.4,2.8c0.3,0.2,0.4,0.4,0.5,0.7c0.2,0.5,0.2,0.9,0.2,1.4
			c0,1.6-0.8,2.9-1.6,3.9c0,0,0.1,0.1,0.1,0.1c0.5,0.4,1.5,1.1,1.5,2.4c0,0.2,0,0.4-0.1,0.6c-0.1,0.6-0.6,1-1.1,1.2
			c-2.7,0.7-5.4,0.1-7.4-1.5c0,0-1.3-1.8-1.3-1.8c-0.4-0.7-0.7-1-0.9-1.1c-0.2,0.2-0.5,0.8-0.6,1.2l-0.6,1.3
			c0.1-0.2-0.1,1.1-0.1,1.1c-0.1,1.1-0.3,2.5-1.4,3.5c-0.3,0.3-0.8,0.4-1.2,0.4l-1.2-0.1c-5.6-1.9-10.7-4.7-16.4-8.9
			c-2.5-1.9-4.3-4.4-6.1-6.8l-1.4-1.8c-0.1-0.2-0.2-0.3-0.2-0.5L51,92c-0.9-3.4-1.8-5.7-4.2-6.4C46.5,85.6,46.2,85.7,46.1,85.7z
			 M49.7,105.8L49.7,105.8L49.7,105.8L49.7,105.8z M38.7,103.7c0.2-0.1,0.4-0.1,0.6-0.1C39.1,103.5,38.9,103.6,38.7,103.7z
			 M89.4,105.5c0.2-0.3,0.4-0.3,0.4-0.5c0,0,0,0,0,0C89.7,105.1,89.5,105.3,89.4,105.5z M116.7,124.3c0,0.1,0.1,0,0.2,0.3
			c-0.1-0.2,0-0.4-0.1-0.5C116.8,124.2,116.7,124.2,116.7,124.3z M83.2,147.6L83.2,147.6c0,0,0,0-0.1-0.1L83.2,147.6z M83.3,147.9
			c0-0.2,0-0.2,0-0.3c0,0,0,0,0,0C83.3,147.8,83.3,147.9,83.3,147.9z M53.4,156.9C53.4,156.9,53.4,156.9,53.4,156.9
			C53.4,156.9,53.4,156.9,53.4,156.9z M103.5,186.6c0,0.2,0,0.3,0.1,0.5C103.6,187,103.6,186.8,103.5,186.6
			C103.5,186.6,103.5,186.6,103.5,186.6z M105.2,201.4c0.2,0,0.4,0,0.4,0C105.5,201.4,105.3,201.4,105.2,201.4z"/>
		<path class="st2" d="M2.3,85.5c0-24.5,0-51.8,0-83.7h209.5c0,0,0,12.5,0,84.3c0,106.1-105.7,168.3-105.7,168.3S2.3,189,2.3,85.5z"
			/>
		<path class="st3" d="M148.5,207.7L148.5,207.7C148.5,207.7,148.5,207.7,148.5,207.7L148.5,207.7L148.5,207.7L148.5,207.7
			L148.5,207.7L148.5,207.7l0.1-0.1L148.5,207.7L148.5,207.7l0.1-0.1L148.5,207.7L148.5,207.7c-0.6-0.6-1.4-1.8-1.9-2.1
			c-0.8-3.7,4.9-6.2,2.1-10.1c-0.7-2.3-0.1-5.4-2.5-7.1c-1.6-1.4-3.8-1.6-5.8-2.9c0-1,1.2-0.7,1.9-1c3-0.8,5.8,2.9,8,0.1
			c0.3-2.1-1.6-3.8-3-5.2c-4.5-3.1-11.4-1.9-14.8-6.7l0.4-0.4c4.4,1,9.2,0.1,12.5-2.7c1.9-2.5,3.8-4.9,6.9-5.8c3-2.3,3.4-6.2,3.4-10
			c0.1-1.5,0.8-2.9,1.9-4c1.6-1.5,5.9-1,5.1-4.1c-2.3-1.2-4.8-2.3-7.5-2.1c-1.2-0.7,0.3-1.6,0.7-2.2c4.4-2.9,11.2-4.7,11-11.1
			c-0.4-0.7-0.3-1.8-1.4-1.9c-1.9,0.3-3,2.1-4.8,2.9c-4.1,2.3-9.3,1.9-13.3,4.4c-0.8,0-0.6-1.1-0.3-1.4c1.5-2.1,4.5-2.2,5.6-4.8
			c0.8-2.1,1.2-4.8,3.6-5.6c1.4-1.1,3.6-1.1,4.4-2.7c-0.1-1-1.2-1.5-2.1-1.8c-4-1.2-7.8,1.1-10.6,3.8c-2.9,1.2-6.2,2.3-8.4,4.7
			c-0.4,0.1-1.1-0.1-1.1-0.8c-0.6-5.5,4.4-9.5,7.9-12.8c2.6-0.7,4.8-3.8,7.8-2.5c2.1,1.1,4.2,2.2,6.7,1.4c3-1.1,3.7-4.5,6.4-6.2
			c2.1-0.7,4.9,2.3,6.2-0.6c0.7-3-1.8-4.8-3.1-7c1.6-4.2,0.4-9.2-3-12.2c-1.6-1-3.7-1.7-5.6-1.1c-1.5,1.9,1.4,3.2,1.5,5.1
			c0.7,7.8-7.8,9.6-12.9,12.9c-9.6,4.8-21.3,12.2-21.9,24.5c0.1,6.9,3,12.9,7.7,17.7c2.5,4.2,6.4,8.2,4.9,13.6
			c-1,2.2-3.6,2.5-5.6,2.5c-8.2-0.6-12.8-9.7-16.2-16c-1.1-2.5-2.5-4.8-2.7-7.7c0.4-0.4,0.8-0.3,1.2,0c1.5,1.4,1.4,4.7,4,4.2
			c2.1-2.9,0.6-6.3-0.6-9.2c-1.5-2.6-4.7-4-5.9-6.7c-0.1-2.1,2.9-0.8,3-2.9c-1.1-3.6-1.2-7.3-0.8-10.6c0.6-1.5,2.8-1.4,2.8-3.3
			c-1-3.4-1-6.9-0.8-10.6c0.4-2.2,2.2-4.5,1-6.8c-2.5-0.7-0.4-3.7-2.7-4.4c-4.7,0-8.1-2.5-12.1-4c-2.1-0.6-3.6,0.7-5.2,1.1
			c-2.6,0.6-5.3,0.6-7.1,2.5c-1.2,1.5-1,3.2-1,5.2c-0.4,1.2-1.5,0.1-2.1,0c-1.9-1.1-2.6-3.2-2.1-5.2c0.3-1-0.1-1.9-1-2.6
			c-1.2-0.8-3-1.2-4.5-0.7c-1.9,0.7-2.5,2.9-3.3,4.5c-0.1,1.4,0.1,3,0.8,4.1c2.7,2.9,6.6,4,9.6,6.4c0.6,1.7-0.6,3.3-1.6,4.7
			c-0.1,1.5,2.1,1.5,1.8,2.9c-2.2,0.6-4.4,0.1-6-1.2c-1.1-1-1.4-3-3.2-3.3c-1.7,0-1.9,2.2-2.6,3.3c-0.6,1.2-0.1,3.3-1.2,4.2
			l-1.2-0.1c-5.6-1.9-10.7-4.9-15.6-8.6c-2.9-2.2-4.9-5.5-7.1-8.4c-1.1-3.4-1.6-8.2-6-9.3c-1,0.1-2.2,0.3-2.3,1.4l-0.3,1.4
			c-2.2,0-4.4-1.5-6.7-0.7c-1.1,0.7-2.2,1.5-2.9,2.6c-0.1,2.5,2.9,1.5,3.3,3.4c0,1.8,1.4,3.3,2.2,4.5c-0.5,1-1.6,1.5-2.2,2.5
			l-1.4,3.4c0.6,1.1,1.2,2.5,2.6,2.6c1.9-0.8,3.6,0.6,5.6,0.3c1.2,0.1,3.3-1,3.4,1.1c0.7,1.6,0,3.2-0.1,4.7
			c-1.8,2.6-4.1,4.5-6.7,5.8c-0.8,0.6-0.8,1.8-0.5,2.6c1,1.4,3.2,0.8,4.7,0.7c2.9-0.1,5.1-1.8,7.8-2.1c0.7,1.4,1.8,3,3.2,3.7
			c2.2,0.6,2.7-2.5,4.9-1.7c1.8,1.4,1.2,4,2.9,5.6c0.1,1-0.8,1-1.4,1.4c-2.3,0.8-5.6,0-7.4,1.9c-0.3,1.1,0.7,2.1,1.5,2.5
			c2.1,1.1,4.7,1.4,7.1,1.8c2.2,0.3,4.5-0.6,6.6,0l-0.7,1.1l-6.7,4.5c-3,1.2-6.3,1.9-9,3.4c-4.2,1.1-6-4.3-9.9-4
			c-1.7,0-2.7,0.5-3.8,1.5c-1,1-1.1,2.5-0.8,3.7c0.5,1.2,2.3,0.7,2.3,2.1c-0.1,3.8-3.4,6.6-3.7,10.6c-0.1,0.9,0.1,2.2,1.2,2.6
			c0.7,0.4,1.8,0.1,2.3-0.4c0.8-0.8,0.8-2.1,2.2-2.3c2.3,0.3,4.8,0.3,6.4-1.5c0.8-0.1,1.7,0.7,1.7,1.4c0,1,0,2.1,1,2.5
			c3.4,0.1,5.1-3.4,6.6-5.9c1.5-0.3,3.2-1.4,4.7-0.4c0.6,2.3-1.4,4-1.8,6.2c0.1,0.6,0.8,1.1,1.5,1.2c4.1-0.6,6.4-4.4,8.9-7.4
			c0.4-0.8,0.8-1.9,2.1-1.9c3.2,0.9,4-2.9,5.9-4.3h0.8c0.3,1-0.4,1.6,0,2.6c1.4,1.5,2.9-0.1,4.2-0.4l2.9-1.8c3.4,1.1,7,1.9,10.6,2.7
			c2.9,1.1,0,4.1,1.8,5.9c-0.4,1-1.7,1.2-2.9,1.2c-6,0.8-13-0.8-17.8,3.7l-2.9,2.9c-4.5,0.1-6.8,4-11,4.7c-2.7,1.9-7-0.8-8.8,2.3
			c1.4,2.9,4.8,3.8,7.8,4.7c1.2,0.6,3.3-0.1,4,1.2c0.1,1.4,0.4,3,2.1,3.6c1.2,0.4,1.9-1.4,3-0.4c1.5,2.1,3.7,3,4.9,4.9
			c-1,1.8-3.3,0.7-4.9,0.7l-0.3-0.1c-2.5,0.3-5.6,1.5-7.5-0.8c-2.6-1.9-4.7-4.9-8.4-4.9c-2.1,0.6-4.2,1.4-4.7,3.7
			c-0.3,1.4,1.1,1.9,1.6,2.7c-2.5,1.6-5.1,4.2-4.2,7.5c0.3,0.7,0.5,1.5,1.5,1.5c1.2,0,2.2-1.1,3.4-0.4c0.3,2.1-0.3,5.2,2.2,6.2
			c1.9-0.3,3.3-2.3,5.3-0.8c2.1,1,3.7-1,5.5-1.5c2.9,0,4,2.8,4.9,4.8c1.8,1.4,4.2,3.6,6.7,2.2c1.7-2.3-1.5-5.4,1.7-6.9
			c1.9-0.6,3.6,0.1,5.5-0.3c3,0.3,6.7,0.6,8.4-2.7l2.7-4.7l0.6-2.9c1.8-0.6,4.4,2.3,5.2-0.4c-0.9-2.8-1.2-5.5-0.8-8.5
			c0.6-2.1,1.5-4,2.9-5.4l0.7,0.3c0.8,3.4,0.9,6.9,2.5,10c-0.3,3.2-1.9,5.9-2.3,9.1c-0.8,3.3-3.2,5.9-6.2,7.4
			c-0.7,0.6-1.2,1.5-0.8,2.5c0.8,1.5,2.9,0.7,4.4,1c4.2-0.6,8.2-2.6,11.1-5.8c3,0.8,4.5-2.9,7.3-1.2c2.9,2.2,8.1-1.6,9.2,3
			c-0.4,2.2,1.6,6.2-1.9,7.1c-3.6-0.6-7.7-5.2-11.2-1.1c-0.8,0.8-1.4,1.9-0.8,3c0.6,1,1.2,2.2,0.3,3c-1,1.6-2.3,3.7-1.5,5.8
			c0.7,1.2,2.1,1.2,3.3,1c2.1-0.8,4,1,6,1.1c1.8,1.4,3.6,3,5.9,2.9c1-0.5,0.8-1.8,1.5-2.6c1.5-1.2,4.7-1,4.7-3.7
			c0.4-2.1,2.2-3.9,3.9-5C143.4,210.6,147.4,209.6,148.5,207.7L148.5,207.7z"/>
		<path class="st1" d="M85.7,87.6c-0.4,1.8-0.3,3.4,0.8,4.9c2.9,3.2,7.3,4.1,9.1,7.8l-1.1-0.1c-3.4-2.2-6.6-4.8-10.1-6.4
			c-1.4-1-2.3-2.5-2.1-4.2c0.3-1.2,0.7-2.6,2.1-2.9C85.1,86.6,85.7,87,85.7,87.6L85.7,87.6z"/>
		<path class="st1" d="M115.1,90.9c0.6,0.8,0.1,2.6,1.8,2.7c0.4,0,0.8,0.4,0.8,0.8c-0.1,1.4-0.4,2.9-0.8,4.2c-0.4,1.1-1.9,1.5-1.9,3
			c0,0.8,1.2,1.2,1.4,2.1l-0.1,5.5c-3.4,1.1-1.8,5.3-2.1,7.5c-0.4,1.8,0,3.6-0.1,5.3c-0.8,0.4-2.3,0.3-2.7,1.5c0,2.1,1,3.7,1.6,5.4
			c1.2,1.8,3.8,2.2,4,4.5c-1.8,0.1-3.4-1.1-5.1-1.6c-2.6-1.4-4.4-4.1-5.9-6.6c-0.4-0.4-1-0.4-1.4,0.1c-0.3,1.6-0.4,4-1.9,5.1
			c-1.8-1.1-1.6-5.5-4.5-4.1c-1,5.9-4.9,10.6-8.4,15.5c-0.8,0.3-1,1.5-2.1,1.2c1.8-4.5,3.2-10,1.4-15.1c-0.4-1-1.4-0.7-2.1-0.3
			c-0.8,0.5-1.2,1.9-2.5,1.5c-1-1.5,1-3.8-1.2-4.8c-1.9,0.4-3,2.1-4.7,2.9c-4.1,2.5-9.1,3.4-14,3.6c-1,0-1.8-0.3-2.3-0.7
			c1.2-1.2,3-1.5,4.5-2.3c5.8-3.4,9.6-9.7,14.3-14.4c-0.4-2.1-2.2-4.5-0.3-6.4c1.5-0.1,2.1,1.6,3.3,2.1c2.1,1.1,4.7,1.8,6.9,0.8
			c1.9-0.4,3.3-2.2,3.4-4c0.1-0.8-0.4-1.2-1-1.5c-0.6,0-1.2,0-1.5-0.6c0-1,0.7-1.7,1.5-1.8c2.3,0.1,4.7,5.1,6.3,1
			c1-3.3-2.1-5.8-4.4-7.8c-0.6-0.7-1-1.4-0.7-2.3c1.8-1.1-0.4-2.6,1-3.8c2.3-1.8,5.9-0.7,8.4-2.5C108.2,86.8,111.2,90,115.1,90.9
			L115.1,90.9z"/>
		<path class="st1" d="M49.8,89.7c0.1,0.7,0.3,1.4,0,1.9c-0.5,0.6-1.2,0-1.7-0.3c-0.8-0.7-1.2-1.8-1-2.5
			C47.4,86,49.8,88.6,49.8,89.7L49.8,89.7z"/>
		<path class="st1" d="M47.9,93.8c3.7,1.8,6.5,5.5,9,8.6c5.9,4.9,12.2,9.2,19.3,11.1c0.3,1.1-0.6,2.1-1.4,2.9
			c-2.3,2.5-4.2,5.3-6.7,7.5c-0.6,0.1-1.1,0.1-1.5-0.1c-2.5-2.3-2.2-7.1-6.4-7.3c-1.4-0.1-2.5,1.7-3.8,0.7c-1.4-1.1,0.4-3.6-1.6-4.1
			c-2.3,1-4.2,3.6-7,3.2c1.8-3,4.9-6.3,3.3-10.3c-0.4-1.8-1.5-3.7-3.2-4.4c-1.6-0.1-2.6,1.8-4.2,1c-0.7-1.5-3.7-0.8-2.5-2.7
			c1-1.7,5.1-1.9,3.4-4.7c-1.1-1.5-3.7-0.7-4-2.8c0.3-1.2-0.8-2.9,0-3.7C43.9,88.5,46,91.8,47.9,93.8L47.9,93.8z"/>
		<path class="st1" d="M168.3,95.5c0.4,2.2-1.6,3.6-1.1,5.6c0.6,1.1,2.3,1.4,2.2,2.6c-5.2,0.1-6.2,7-11.4,6.9
			c-2.2-0.4-3.8-2.7-6.4-1.7c-6.7,3.2-14,7.8-15.8,15.8c-0.8,3-0.6,6.4,1.6,8.9c0.6,0.3,1.2,0.3,1.8,0c1.4-2.5,2.5-5.8,5.8-6.4
			c1.9-0.7,3.8-1.4,5.6-2.5c0.3,0,0.7-0.3,0.8,0.3c-0.8,2.3-1.9,5.2-4.5,6c-1.9,1.6-3.7,3.6-4,6c-0.1,1.2-0.3,2.9,0.7,3.8
			c1,0.8,2.1-0.3,2.9-0.8c3.6-4.4,8.9-4.9,14.3-5.2c0.3,0.4-0.4,1.2-1,1.4c-4.5,1.5-8.8,5.2-10.3,9.7c0.1,0.7,0.6,1.2,1.1,1.5
			c2.2-0.3,4-1.6,6.3-1.4c0.5,1.5-1.8,1.5-2.3,2.7c-4.2,3.7,0,12.1-7.1,13.3c-2.1,0.6-1.8,3-3.1,4.2c-2.3,3-6.2,3.8-10,3.4
			c-2.7,0.3-5.1-3.7-7.4-1.1c0.3,2.7,2.5,4.2,3.8,6.6c3.4,3.3,8.2,3.6,12.6,4.9c0.6,0.1,1,0.6,1.2,1.1c0,1-1.2,0.7-2.1,0.6
			c-2.7,0.4-5.9,0.8-8.6-0.3c-0.4-0.1-0.8,0.4-1,0.8c0.4,3,3.8,4.1,5.9,5.8c2.1,1,4.8,0.7,5.8,3.2v3.1c1,1.5,1.5,3.4,1.1,5.4
			c-1.9,2.2-3.3,5.1-1.8,7.9c-0.8,0.7-2.1,0-2.9,0.6c-1,2.1-3.6,2.3-4.2,4.4c-0.1,1.6-1.1,3.2-2.7,3.4c-1.4-0.1-2.3,0.6-3.6,0.3
			c-0.8-1,0.4-2.5-1.1-3c-1.9-0.4-2.6,2.6-4.7,1.5c-1-0.6-1.9-1-2.3-1.9c-0.1-1.2,1.1-1.6,1.9-2.2c4.5-0.6,10.4-1.4,12.1-6.3
			c0.3-2.3-0.8-4.2-0.4-6.3c-0.7-2.6-3.3-4.3-5.9-4.5c-2.5-0.7-5.2,0.3-7-1.5c-0.7-0.6-1.5-1.1-2.3-0.7c-0.7,0.1-1,1.1-1.8,0.7
			c-0.7-0.7-1.6-1.6-2.5-0.7c-1.6,3.3-4.1,6.9-8.1,7.5c-0.5-1,0.6-2.1,1-3.1c1.2-2.6,2.2-5.5,2.7-8.4c1.1-1.5,2.3-3.4,1.5-5.5
			c-1.6-4.7-3.6-9.7-2.2-15.1c1-6.3-0.6-12.2-5.2-16.4c-2.6-1.5-4.8-4.1-7.9-4.7c-2.1-0.7-5.1,0.1-6.2-1.9c0.3-2.2,2.6-3.4,3.6-5.4
			l3.6-5.5c1.5-0.3,1.1,1.9,2.6,1.8c2.9,0,2.7-4.8,5.8-3.3c1.4,1.9,3.6,2.6,4.9,4.2c1.9,7.8,4.8,15.4,10.2,21.7
			c4.1,5.4,10.4,9.3,17,7.4c1.8-1.5,4.2-3.1,4.7-5.8c1.8-12.5-14.1-18.6-12.9-31c1.1-11.7,13-18,22.5-22.5
			c5.2-2.8,11.8-6.4,12.2-13.2c-0.1-0.7,0-1.1,0.3-1.8C168.3,91.4,168.1,93.7,168.3,95.5L168.3,95.5z"/>
		<path class="st1" d="M83.1,132.5c1.5,0.3,3.3-1.6,4,0.4c-0.3,2.9-0.4,6.2-1.8,8.6c-1.4,1.4-3.4,0.3-4.9,1
			c-2.1,0.6-2.5,5.6-5.1,2.3c-1.1-0.4-1.8,0.7-2.3,1.2c-1.1,2.6-2.2,5.2-4.1,7.3c-0.4,0.3-1.1,0.6-1.5,0.1c-0.3-1.8,1.1-4.9-1.5-5.5
			c-1.1-0.1-2.1,0.6-3,1c-2.1-0.1-4.8-0.1-5.9,1.9c-0.3,1-0.4,2.3-1.6,2.5c-1.2-0.6-2.9-1-3.4-2.6c-0.5-0.4-1.4-1-2.1-0.3
			c-1.1,1.1-1.5,3-3.3,3c-1.4,0-2.6-0.4-3.7-1c0.3-3.2,3.8-3.6,6-4.8c4.4-1,7.7-3.7,12.1-4.5c6.8-2.6,12.3-7.7,17.7-12.9
			c0.8-0.3,1.7-0.7,2.5-0.7C81.6,130.7,81.6,132.2,83.1,132.5L83.1,132.5z"/>
		<path class="st1" d="M49.7,145.1c-1.2,0.8-3.2,1.4-4.7,0.7c-0.8-0.8-0.4-2.3-0.5-3.6c0.4-1,1.6-0.7,2.3-0.3
			C47.8,142.9,49.7,143.5,49.7,145.1L49.7,145.1z"/>
		<path class="st1" d="M108.4,162.8c-0.1,2.1-0.3,3.6-1.4,5.4c-2.3,2.2-4.5,5.1-5.3,8.4c0,2.3-0.3,4.5-0.4,6.7
			c-0.7,0.6-1.2-0.3-1.7-0.7c-1.1-1.6-0.8-5.4-3.7-4.8c-1.5,1.6-3,4.1-2.1,6.3c1.2,1.8,3.7,3.2,2.3,5.5c-2.1,1.1-1.5,4.2-4.2,4.5
			c-4.1,0.6-8.4-1.2-11.7,1.6c-1.1,1-1.8,2.3-2.3,3.7c-1.9,0.3-1.4-2.3-2.3-3.4c-0.7-1.1-2.1-0.4-3-0.9c-1.5-0.6-3-2.2-4.8-1
			c-1.5,0.8-3.3,2.7-5.1,1.2l-2.5-0.7c-0.1-0.8,0.8-1.9,0.1-2.8l-4.8-2.2c-0.3-0.4,0.1-1,0.4-1.2c4-2.6,8.5,0.4,13.2-0.4
			c3-1.1,5.9-0.5,9.2-0.4c1.8,0.1,4,0.6,5.1-0.9c0.7-1,1-2.3,0.3-3.4c-1.4-3-5.8-3.7-6.3-7.3c-0.3-0.7-0.8-1.4-1.5-1.6
			c-1.1-0.4-1.8,0.8-2.9,0.3c-0.3-1-0.6-2.2-1.7-2.6c-2.1,0-4.5,1-6.3-0.4c0.3-1.1,1.6-0.8,2.5-1.4c2.9-0.6,5.3-2.5,7.9-3.7l4-0.6
			c4-6.4,12.1-6,18.9-6.3l6.7-2.1C107.4,158.1,108,160.9,108.4,162.8L108.4,162.8z"/>
		<path class="st1" d="M64.6,185c-1.2,0.8-2.9,0.3-4.2,0.1c-0.8-0.7-1.1-2.2-1-3C61.5,181.2,63.7,183.2,64.6,185L64.6,185z"/>
		<path class="st1" d="M125.9,207.2c0.1,0.7-0.8,0.6-1.1,0.6c-0.6,0.1-0.6-0.3-0.8-0.6C124.1,206,125.6,206.7,125.9,207.2
			L125.9,207.2z"/>
		<path d="M108.1,93.1c0.3,1-0.4,1.8-1.4,1.9c-1.7,0.1-3.2,0-4.4-1.2c-1.2-1-0.6-2.6-0.3-3.8c0.6-0.7,1.5-0.7,2.2-0.3
			C105.8,90.5,107,91.9,108.1,93.1L108.1,93.1z"/>
		<path d="M115.9,95.5c0,1.1-0.6,2.2-1.2,3c-0.7,0.4-1.2,0.1-1.5-0.6c-0.3-1.2,0.3-2.3,1-3C114.7,94.5,115.8,94.6,115.9,95.5
			L115.9,95.5z"/>
		<path d="M107.1,105.3l-0.1,2.3c-2.3,2.6-2.3,6.6-5.9,8.1c-1,0.1-1.8-0.4-1.9-1.4c-0.1-1.5-0.4-3.4,0.1-4.9
			c1.5-0.8,1.9,2.2,3.2,0.8c0.6-2.2,2.3-3.8,3.4-5.6C106.4,104.5,106.9,104.9,107.1,105.3L107.1,105.3z"/>
		<polygon class="st3" points="2.4,62.7 211.7,62.7 211.7,77.1 2.4,77.1 		"/>
		<polygon class="st1" points="158,65.3 181.8,65.3 181.8,74.5 158,74.5 		"/>
		<polygon class="st1" points="106.3,65.3 130.1,65.3 130.1,74.5 106.3,74.5 		"/>
		<polygon class="st1" points="54.2,65.2 78,65.2 78,74.5 54.2,74.5 		"/>
		<polygon class="st1" points="4.9,65.2 26.5,65.2 26.5,74.5 4.9,74.5 		"/>
	</g>
	<g>
		<path class="st4" d="M202.2,11c1.7,2.1,0.6,5.1,1,7.7c1.8,1.6,5.8-0.1,6.2,3.4c0.3,1.4-0.6,2.4-1.3,3.3c-1.3,1.3-3.6,0-4.7,1.4
			c-0.4,4.3,0,8.9,0,13.8c1.3,0.8,3,0.7,4.4,1.4c0.7,0.8,1.4,1.7,1.4,2.8c-0.1,1.1-0.9,2-2,2.4c-1.1,0.6-3.1,0-3.7,1.6
			c-0.6,2.3,0.1,4.8-0.3,7.2c-1.6,0.7-3.4,0.7-5.1,0.7l-16.8-0.1c-1.6,0.8-3.3,2.4-5.4,1.6c-3.6-2.3-8.4-1.6-12.5-1.7l-12.5-0.1
			c-2.3-2-0.6-5.4-1.3-7.8c-0.9-1.4-3.1-0.8-4.5-1.6c-1.3-0.6-1.6-2-1.4-3.1c0.1-1.4,1.4-2.1,2.7-2.4c1-0.6,2.8,0.4,3.3-1.1
			c0-4.4-0.3-8.7-0.1-12.8c-0.3-2.5-3.7-1-5.1-2c-1.3-0.9-1.4-2.4-1.1-3.8c1.1-2.4,4-1.8,6.1-2.6l0.3-0.7l0.3-7.4l0.7-0.6l19.4,0.4
			c2.3,0,4.3,1,6.4,1.7c4.1-3.1,10.2-1.6,15.2-2.4C195.2,10.9,198.8,10.3,202.2,11L202.2,11z"/>
		<path class="st4" d="M132.5,10.5c0.9-0.1,1.7,0.6,2.4,1c0.7,2.7-0.1,5,0.6,7.5c1.8,0.7,4.5,0.1,5.5,2.4c0.4,1,0.4,2.7-0.3,3.5
			c-1.4,1.8-4.7,0.1-5.7,2.3c-0.3,5.1-0.4,8.7,0,13.5c1.4,1.4,4,0.3,5.2,2.1c0.7,0.8,1,1.8,0.7,3c-1.1,1.8-3.6,1.8-5.5,2.3
			c-0.9,0.7,0,2-0.4,3c-0.7,1.8,1,4.1-1.1,5.2c-5.8,0.8-11.3-0.3-17.3,0.1l-5.7,0.1c-1.6,1-3.4,2.6-5.4,1.4l-3.6-1.6
			c-4.3,0.1-8.2-0.1-12.5,0c-2.8-0.1-6.8,1.1-8.7-1.6c0-2.3,0.4-4.5-0.1-6.8c-2.1-0.7-5.7,0.3-6.8-2.4c-0.3-0.8,0-2,0.3-2.8
			c1.6-2.3,5.1-0.3,6.7-2.1l-0.1-6.2c0.4-3-0.1-5.4-0.1-8.2c-2.1-0.9-5.8,0.3-6.2-3c-0.3-1.7,0.7-3.1,2.3-3.4c1.4-0.4,3.4,0.3,4.1-1
			l0.4-6.7c1.7-2.8,5.8-1.1,8.4-1.6l12.9,0.1c2,0.3,3.8,2.3,5.8,1C115.9,8.6,124.6,11.3,132.5,10.5L132.5,10.5z"/>
		<path class="st4" d="M36.7,12.1c7-3,14.8-0.9,22.4-1.3c2,0.4,5-1,6.2,1.1c0,2.3,0,4.4,0.1,6.7c0.7,1.6,3,0.3,4.3,1.1
			c0.7,0.4,1.6,0.9,1.7,1.7c0.4,1,0.1,2.1-0.4,3.1c-1.4,1.6-3.3,1-5.1,1.4l-0.6,0.9c0.3,4.1-0.8,7.8,0,11.8c-0.1,0.8-0.4,2,0.6,2.5
			c2,0,4,0,5.4,1.3c0.6,1,0.6,2.3,0.3,3.4c-0.8,4.3-7.4-0.6-6.7,4.4c0,1.8,0.4,4.4-0.3,6.1c-7.7,0-15.5-0.6-22.7-0.1
			c-1.3,1.1-3,1.8-4.8,2c-1.6-0.3-2.7-1.1-4-2c-7-0.3-13.8-0.3-20.4-0.4c-2.1-1.8-0.6-4.8-1.3-7.5c-1.1-1.3-2.8-0.3-4.1-1
			c-1-0.1-1.3-1.1-1.9-1.8c0-1.6,0-2.8,1.1-3.8c1.1-0.8,2.7-0.7,4.1-0.8l0.7-0.7c-0.4-4.7,0.7-9.1-0.3-14c-0.7-1-2-0.1-2.8-0.9
			c-1.3-0.3-2.5-0.7-3-2.1c-0.3-1.1-0.6-2.3,0.6-3.3c1.6-1.7,4.3,0.3,5.7-1.4l0.6-6.8c1.1-2,3.8-1,5.8-1c3.4-0.7,7.7-0.1,11.4,0
			C31.8,10.6,34.4,11.1,36.7,12.1L36.7,12.1z"/>
		<path class="st1" d="M35.7,13.8l0.6,1.3c0.3,9.5,0.3,19.2,0.3,29.1l-0.3,3.7c-2.4,0.1-4.8-1.1-7.5-0.8c-2.7-0.3-5.7,0.3-8.1-0.4
			c-1.4-3.3-0.4-6.5-0.7-10.1c0.1-7.1,0.3-15.8,0.3-23.4c0-0.6,0.7-0.9,1.1-1C26.3,12.6,31.7,11.3,35.7,13.8L35.7,13.8z"/>
		<path class="st1" d="M16.8,13c-1.3,1-3,2.8-2.4,4.5c0.6,11.9,0,22.6,0.6,33.8l1,1.1c5.5,0,11.6-0.6,17,0.4
			c0.3,0.1,0.3,0.6,0.1,0.8C31.7,54.3,30,54,28.4,54l-14.5-0.3c-1-0.8-0.6-2.8-0.6-4c0-1.4,0.4-3.1-1.1-4c-2-0.4-4,0.1-5.3-1.4
			c1-2.8,5.5-0.6,6.4-3.7c0.4-5.2-0.4-10.5-0.1-15.5c-0.6-2.8-3.7-2-5.7-2.4c-0.3-0.3-0.7-0.7-0.6-1.3c1.7-1.7,5.1,0.3,6.4-2.1
			c0.6-2.3,0.1-4.4,0.4-6.5c0.7-0.7,2-0.7,3-0.4L16.8,13C16.8,13,16.8,13,16.8,13z"/>
		<path class="st1" d="M56.8,13.1c0,11.5,0,22.4-0.1,33.6c-5.7,0.6-12.1-0.4-17.7,1.1c-1.3-1.1-0.3-3-0.6-4.5
			c-0.3-3.7,0-7.8-0.1-11.6c0.1-5.5-0.3-11.8,0.1-17.2c0.8-1.7,2.8-2.3,4.7-2.3l13.3,0.1L56.8,13.1L56.8,13.1z"/>
		<path class="st1" d="M63.3,13c0.4,2.3-0.6,5.2,0.8,7.5c1.4,0.9,3.6,0.4,5,0.7c0.6,0.6,0.4,1.4,0.1,2c-1.6,1.6-4.8-0.4-5.7,2.1
			c0,5.5-0.3,10.9,0.1,16.6l0.8,0.7c1.8,0.3,4.1-0.4,5.4,1c0.1,0.8,0,1.7-0.8,2c-1.8,0.4-4.5-0.6-5.5,1.4c-0.4,2.3,0.3,4.5-0.4,6.8
			l-1,0.4l-20-0.3c-0.4-0.3,0-0.6,0.1-0.8l2-0.7l16.2,0.2c1.7-0.4,1.7-2.5,1.8-3.8c-0.1-8,0-14.9-0.1-22.6
			c-0.1-3.8,0.6-7.5-0.3-11.2c-0.1-0.9-1.4-1.4-1.6-2.4C61.2,12.1,62.8,12.1,63.3,13L63.3,13z"/>
		<path class="st1" d="M154.8,12.8c-0.3,1.1-1.7,2-2.1,3.1c0.1,11.6,0,24.3,0.4,36.3l1,0.6c6.2,0.1,12.9-1.3,18.3,1.3
			c0.3,0.1,0.1,0.1,0,0.3c-6.8-0.1-13.6,0.4-20.3-0.1l-0.6-0.7c-0.3-2.5,0.3-5-0.9-7.2c-1.6-1.4-6.1,0.4-5-2.8
			c1.7-1.3,4.4,0.4,5.4-1.7c0-6,0.3-11.2-0.1-16.8c-1.3-1.7-3.7-0.6-5.4-1c-0.6-0.6-1-1.4-0.4-2.1c1.9-1.6,7.2,0.4,6.2-4
			c0.6-1.8-0.9-5.4,1.7-5.5C153.6,12.4,154.3,12.3,154.8,12.8L154.8,12.8z"/>
		<path class="st1" d="M201,13.1c0.6,2.7-0.6,5.4,1,7.8c1.7,0.4,4.4-0.6,5.2,1.1c-0.1,3.4-4.8,0.7-5.8,3.4c0.4,5.4-0.4,9.8,0.1,15.6
			c-0.6,0.4-0.7,1-0.3,1.6c1.6,1.3,3.6-0.8,5.1,0.6c1,0.3,0.4,1.1,0.4,1.7c-1.3,1.8-4.4-0.3-5.2,2.1l-0.3,7.1l-1,0.4l-18.9-0.1
			c-0.3-0.3-0.1-0.4,0.1-0.6l2.3-0.8h14.3c0.7-0.1,1.7-0.7,1.7-1.7c-0.1-11.2-0.3-22.9-0.3-35.1l-1.7-3.4
			C198.6,12.1,200.6,12,201,13.1L201,13.1z"/>
		<path class="st1" d="M156.9,17.5c0,9.9,0,20.4,0,30.5c-0.3,0.8-1.3,1.3-1.9,1.8l-0.6-0.4c-0.1-3.3,0.1-7-0.1-10.1V37
			c-0.1-6.7-0.1-14,0.1-20.9c0.6-0.6,1.1-1.7,1.9-2C156.9,15.4,156.6,16.2,156.9,17.5L156.9,17.5z"/>
		<path class="st1" d="M198.3,16c-0.3,7.9-0.1,15.5,0.1,23c-0.1,3.5-0.1,6.7-0.1,9.9c-0.1,0.3-0.1,0.4-0.4,0.6
			c-2.4-1-1.6-3.7-1.7-5.8c0.1-3-0.3-6.4,0.3-9.4l-0.4-1l0.1-18.6C196.8,13.4,197.9,15.2,198.3,16L198.3,16z"/>
		<path class="st1" d="M18.2,14.2c0.6,11.5-0.1,22.6,0.1,33.5c-0.1,0.6-0.7,1.3-1.4,1.3c-0.9-3.5-0.7-7-0.4-10.5
			c-0.3-7.2-0.1-15.3-0.1-22.6C16.6,15.2,17.5,14.5,18.2,14.2L18.2,14.2z"/>
		<path class="st1" d="M60.5,15.5c-0.1,11.5,0.1,22.9-0.3,33.2c-0.3,0.6-0.8-0.1-1.3-0.4c-0.7-1.7-0.1-3.8-0.1-5.5
			c-0.4-9.2,0-18.6,0-28C59.4,14.1,60.2,15,60.5,15.5L60.5,15.5z"/>
		<path class="st1" d="M177.5,30c-0.3,0.7-1.6,0.7-2.3,0.4l-0.7-0.3c0.4-1.6,0-3.4,1.3-4.5C177,26.5,176.9,28.4,177.5,30L177.5,30z"
			/>
		<path class="st1" d="M58.9,50.3c-0.4,0.8-1.7,0.4-2.5,0.7h-4.5c-3.7-0.2-7.4-0.4-10.6,0.3c-0.6-0.1-1.1-0.6-1.1-1.3
			c0.4-1.3,2-0.8,3.1-1.3c4.4,0.1,9.6-0.1,13.9,0C57.8,49,58.5,49.6,58.9,50.3L58.9,50.3z"/>
		<path class="st1" d="M35.1,49.7c0.1,0.7-0.6,1.4-1.3,1.7c-4.5-1.3-9.5-0.4-14.3-1l-0.1-0.1c0.3-0.8,1-1.6,2-1.6
			C26.2,48.7,30.8,48.7,35.1,49.7L35.1,49.7z"/>
		<path class="st1" d="M174.5,50.2c0.4,0.3,0.4,1,0,1.1c-1.7,2-3.8-0.4-6.1,0c-3.7-0.4-7.8,0-11.5-0.4c1-3.1,5.4-1.3,7.8-1.8
			C168,49.5,171.6,48.5,174.5,50.2L174.5,50.2z"/>
		<path class="st1" d="M195.3,49.5c0.7,0.4,1.4,1.1,1.6,1.8c-5.8,0.7-11.5-0.7-17,0.8c-0.9-0.1-1.1-1.1-0.9-1.7c1.1-1.3,3-1,4.7-1.3
			L195.3,49.5L195.3,49.5z"/>
		<path class="st1" d="M39.8,52.4c0.3,1.1,0.1,2.5-0.8,3.1c-0.6,0.7-1.7,0.8-2.6,0.4c-0.8-0.1-1-1.1-1.1-1.8
			c-0.3-1.6,1.3-2.1,2.1-3.3C38.5,51,39.2,51.7,39.8,52.4L39.8,52.4z"/>
		<path class="st1" d="M178.6,53.3c0.1,1.3,0.1,3.1-1.6,3.1c-1.1,0.1-2.1-0.4-2.4-1.4c-0.3-1.4,0.6-2.7,1.6-3.3
			C177.5,51.6,178,52.6,178.6,53.3L178.6,53.3z"/>
		<path class="st1" d="M126.7,13.4c-0.1,11.1,0.1,22.4-0.1,33.5l-0.6,0.3c-6.1,0.6-12.1-1-17.6,1c-1-0.6-0.1-2.3-0.4-3.3
			c0-9.6,0-19.5,0-29.5c0-1,0.7-1.8,1.6-2.1c1.6-1.1,3.7-0.7,5.7-1l11.2,0.3L126.7,13.4L126.7,13.4z"/>
		<path class="st1" d="M133.4,13.1c0,2.6-0.1,4.8,0.4,7.4c1.7,1.6,6.5-0.7,5.5,3.1c-1.6,1-3.7,0.3-5.4,0.6l-0.4,0.6
			c-0.7,5.7,0.4,11.5,0,16.6c0.1,0.6,0.4,1.6,1.3,1.7c1.6,0.1,4-1,4.5,1c-0.3,3.4-4.7,0.3-5.8,3c-0.4,2.6,0.7,4.8-0.3,7.2l-0.7,0.4
			c-7.2-0.1-14.3-0.1-21.2-0.3c-0.3-0.1-0.1-0.6,0.1-0.7l1.3-0.7c5.7-0.6,11.9,0,17.9-0.6c0.9-0.1,1.6-0.8,1.4-1.7
			c0-10.8,0.1-22,0.1-34.1c-0.3-1.7-2-2.7-2.3-4.3C131,12.4,132.8,11.8,133.4,13.1L133.4,13.1z"/>
		<path class="st1" d="M86.3,12.6c-0.3,1.3-1.4,1.7-2,2.7c-0.8,2.3,0.1,4.5-0.3,6.9c0.1,9.8,0,19,0.1,28.7c0,0.7,0.6,1.6,1.3,1.7
			l15.2,0.3c0.8,0.1,1.8,0.4,2.4,1c-0.3,0.8-1.4,0.6-2.1,0.7c-5.7-0.1-11.8,0.3-17.3-0.4L83,53.7c-0.1-2.5,0.1-5.2-1-7.5
			c-1.7-0.7-3.8,0-5.7-0.6c-0.8-0.4-0.6-1.6,0-2.1c1.8-1,5.4,0.6,6.4-2C82.6,36,83,30.7,82.7,25c-1.6-2.3-4.8-0.1-6.2-2.3
			c0.6-3.3,5.1-0.4,6.4-3.1l0.4-6.7C84.1,12.1,85.3,12.4,86.3,12.6L86.3,12.6z"/>
		<path class="st1" d="M88.4,14.5c0.4,9.8-0.6,18.6,0,28.4c-0.8,2.3,1,5.5-2.3,6.1c-0.6-9.8-0.1-20.3-0.4-30.9
			c-0.3-1.7,0.7-3.3,2.1-4.1L88.4,14.5L88.4,14.5z"/>
		<path class="st1" d="M130.6,16.2c-0.1,10.8,0.3,22.4-0.4,32.9c-0.6,0.1-1.3-0.6-1.4-1.1c-0.1-4.4-0.6-8.8-0.3-13.5
			c0.3-6.1-0.4-13.3,0.3-19.6C129.4,14.5,130.6,15.4,130.6,16.2L130.6,16.2z"/>
		<path class="st1" d="M104.6,49.7c0.6,0.1,1.3,0.7,0.8,1.4l-1.1,1c-5-1.8-11.2-0.6-16.5-1.4c0.4-0.7,0.8-1.4,1.6-2
			C94.4,49.2,99.8,48.5,104.6,49.7L104.6,49.7z"/>
		<path class="st1" d="M127.1,49c0.7,0.4,1.6,1.1,1.6,1.8l-0.7,0.3c-6,0.1-12.1-0.7-17.6,0.7c-0.8,0.1-1.8,0-2-1
			c0.6-1.3,2.3-1.7,3.7-1.8C117.2,48.6,122.2,49,127.1,49L127.1,49z"/>
		<path class="st1" d="M108.8,53.7c0,1.1-0.1,2.5-1.4,2.5c-1,0.1-2.6,0-2.6-1.4c0.3-1,1.1-1.8,2.1-2.4
			C108,52.2,108.5,53.1,108.8,53.7L108.8,53.7z"/>
		<g>
			<path class="st1" d="M106,35.8c0.6-5.7,0.1-12.1,0.3-17.5c0-1.7,0.1-3.7-1.1-4.8c-4.1-1.8-9.7-0.9-14.3-1.1
				c-0.3,0.1-0.8-0.1-0.7,0.4C90.1,24,90,34.6,90,45.6l0.3,1.3c3.4,0.6,6.8,0.3,10.4,0.3c1.8,0.3,3.7,0.8,5.4,1.1
				c0.1-3.8,0.4-6.8,0.1-10.5L106,35.8z"/>
			<path d="M104.6,35.4c-1.7-1.4-2.1-3.5-3.6-5.2c0.6-0.8,1.6-1,2.3-1.7c1.1-1.1,2.3-2.7,1.7-4.4c-0.1-1.4-0.8-2.8-2.3-3.5
				c-3-1.1-6.8-0.7-9.8-0.4c-0.6,0.3-0.7,0.9-0.3,1.3c1.1,0.4,1.6,1.3,1.7,2.3c-0.1,3.8-0.1,7.7-0.6,11.5l-1.6,1.7
				c1.6,1.4,3.7,0.3,6,0.7c0.6-1-1-1.7-1.3-2.8c0.3-1.1,0-2.7,0.7-3.7c2.1,1.8,2.8,4.8,5.4,6.5l3.3,0.2l-0.1-1.8
				C105.8,36.2,105,35.5,104.6,35.4z M100.2,28.4c-1,0-2.6,0.7-2.8-0.6c0.1-1.8-0.7-4.3,0-6c1.3-1,3.3-0.6,4.3,0.7
				c0.6,1,0.6,2.3,0.6,3.4C101.6,27,101.3,28.2,100.2,28.4z"/>
		</g>
		<g>
			<path class="st1" d="M194.6,16.4c0-1.3,0.1-2.8-0.6-4l-5.1-0.1c-3.7,0.6-7.8-0.6-10.8,1.3c-1.4,1.7-0.7,3.7-1,5.7
				c0.4,1.2,0.7,2.4,1,3.6l-0.6,1.5l-2.2-0.4l-0.6-1.2c0.2-0.9,0.5-1.8,0.7-2.6c-0.1-2.4,0.7-6.1-2.4-7.1c-4.7-0.4-8.9-0.6-13.9-0.6
				c-0.3,0-0.7,0.1-0.9,0.4c0.1,10.9,0,20.3,0.1,31.1c0,1.3-0.4,3,1,3.5c4.1-0.6,7.8,0.1,11.8-0.1c1.6,0,2.6,1.4,4.1,1
				c0.4-4.4,0.4-9.6,0.3-14.5c-0.1-0.4,0.1-1.3-0.6-1.5l0-0.9l2.4,0.3l0.2,0.8c-0.1,0.1-0.2,0.2-0.3,0.3l-0.3,14.6
				c0.1,0.4,0.1,1.6,1,1.4c4.4-2.5,9.8-0.8,14.9-1.4l1.1-0.4c0.6-2.4,0.3-11.1,0.3-11.1C194.8,29.6,194.6,23.2,194.6,16.4z"/>
			<path d="M178.2,32.4c0.6,0.8,1,1.7,0.9,2.8l-1.1,1.6l0.7,0.6c1.7-0.1,4,0.4,5.5-0.3c-0.4-0.8-1.4-1.1-2-1.7
				c-2-5.2-3.4-10.7-4.9-16.1l-1.7,0.8c-1,4.8-3,9.2-4.1,14.2c-0.3,1-1.3,1.1-2,1.7c-1,0.3-1.4-0.8-1.8-1.4
				c-0.1-4.3,0.4-7.8,0.1-12.4c-0.1-0.7,0.7-1.6,1.4-0.9c1.1,0.6,1,2,1.4,3c0.3,0.4,1,0.4,1.1-0.3l0.7-4.4c-0.6-1.4-1.8,0.1-3,0
				c-2.1-0.1-5.1,0.4-7.1-0.9c-1.7,0.6-1.3,3-1.6,4.5c-0.1,0.3,0,0.6,0.1,0.7c1.4-0.9,2.1-3.1,4.1-2.5l0.1,4.3l-0.4,9.2
				c-0.6,0.7-2,1-1.9,2c2.4,0.7,5.4,0,7.8,0.3c1.4,0.1,3,0.4,4.1,0c0.3-0.3,0.1-0.7-0.1-1c-0.9-0.4-1.8-1.1-1.6-2.3
				c0.4-0.7,0.6-2.1,1.8-1.7c0.3,0,0.4,0.2,0.5,0.4l2,0.2v-0.1C177.8,32.6,177.8,32.4,178.2,32.4z M175.2,30.4l-0.7-0.3
				c0.4-1.6,0-3.4,1.3-4.5c1.3,0.9,1.1,2.8,1.7,4.4C177.2,30.7,175.9,30.7,175.2,30.4z"/>
		</g>
		<path d="M191.1,20.8c0,1,0.7,2.9-0.1,3.6c-1-0.9-1.1-1.7-2.8-2.2c-0.9,0-1.7,0.1-1.9,1.2c-0.3,3,2.8,3,4.5,5.1
			c1.6,1.6,2.3,4.2,1.6,6.2c-0.7,1.6-1.4,2.6-3,2.6c-1.4,0.3-2.5-0.7-3.6-0.2c-0.3,0-0.9,0.3-1.2-0.1l0.1-5.7
			c0.1-0.3,0.4-0.4,0.7-0.4c0.9,1.9,0.3,4,2.9,4.2c0.9-0.2,1.6-0.2,1.7-1.4c0.3-5.1-6.4-3.8-6.2-9c0.1-1.2,0.3-2.2,0.9-3.2
			c1.2-1.9,3.8-0.7,5.5-1.9C191,19.3,191,20.3,191.1,20.8L191.1,20.8z"/>
		<path d="M119.9,20.5c-1.4,0.7-3,1.9-2.6,3.8c-0.4,3.4-0.3,7-0.1,10.6l2.3,2l-0.1,0.3c-2.4,0-4.7,0.4-7.1,0c-1-1.1,1.3-1.7,1.7-2.5
			c0.4-4,0.8-8.1,0.4-12.5c-0.4-1.3-2.6-0.7-2-2.1c2.1-0.3,5-0.3,7.1,0L119.9,20.5L119.9,20.5z"/>
		<path d="M51,23.2c-1.4,1.7-1.7-1.6-3.1-1.7c-0.8-0.1-2.1-0.4-2.8,0.3c-0.3,1.8-0.6,3.5,0,5.2c0.6,0.4,1.7,0.3,2.4,0.3
			c0.8-0.6,1.3-2.1,2.4-2c0.7,0.7-0.3,1.9,0.1,2.6c-0.3,1.1,0.7,2.4-0.6,2.8c-0.8-0.4-1.3-2-2.4-2l-2,0.1c-0.7,2.5-0.4,4.8,0,7.2
			c1.1,1.1,2.5,0.1,3.8,0.1c1.8-0.4,1.4-3,3-2.7c0.4,1,0.6,2.5,0.3,3.7l-0.8,0.6l-10.1-0.1c-0.4-0.1-1.4-0.1-1-0.8
			c3.3-2,1.4-5.8,1.8-8.9c-0.4-2.3,1.3-5.7-1.7-7.1c-0.1-0.9,0.8-0.6,1.1-0.9c2.5,0,6,1,8-1.1C51,19.6,50.9,21.6,51,23.2L51,23.2z"
			/>
		<path d="M35.5,20.9c-2.8,2.3-3,6.3-4.3,9.5c-1.1,1.8-0.6,4.5-2.4,6.1c-0.7,0.3-1.3-0.4-1.4-1c-1-4.4-2.3-8.8-3.8-12.9
			c-0.1-1.3-3.1-1.6-1.4-2.5c2.1-0.3,3.7,0.3,5.7,0.1c0.4,1.3-1.6,2-1,3.5c1.3,1.9,0.9,4.7,2.4,6.5l0.7-0.7c0.1-3.3,3.8-6.2,0.7-9.1
			c0.7-1.3,2.8-0.4,4.3-0.9C35.2,19.9,36.2,20.2,35.5,20.9L35.5,20.9z"/>
	</g>
</g>
<g>
	<g id="Serif_Letters">
		<path shape-rendering="optimizeQuality" d="M248.4,73.8c3-0.8,4.8-3.4,4.8-5.6V12.9c0-2.1-1.7-4.7-4.8-5.6V4.5
			c1.9,0,8.9,0.2,10.5,0.2c1.9,0,9.1-0.2,11.1-0.2v2.8c-3,0.8-4.8,3.4-4.8,5.6v22.4h38.6V12.9c0-2.4-1.6-4.7-4.7-5.6V4.5
			c1.9,0,9.1,0.2,11,0.2c1.7,0,8.5-0.2,10.5-0.2v2.8c-3,0.8-4.8,3.4-4.8,5.6v55.3c0,2.1,1.7,4.7,4.8,5.6v2.8
			c-1.9,0-8.9-0.2-10.5-0.2c-1.9,0-9,0.2-11,0.2v-2.8c3-0.8,4.7-3.2,4.7-5.6V41.7h-38.6v26.5c0,2.2,1.6,4.7,4.8,5.6v2.8
			c-1.9,0-9.2-0.2-11.1-0.2c-1.7,0-8.5,0.2-10.5,0.2V73.8z"/>
		<path shape-rendering="optimizeQuality" d="M336.6,31.6c5.1-1.5,10.2-2.5,16.9-2.5c14.1,0,17.5,7.2,17.5,14.8v22.6
			c0,2.5,0.5,3.4,1.3,3.4c0.8,0,2-0.1,3.1-0.9l1.3,2.9c0,0-3.2,1.7-5.5,3.1c-1.8,1.1-4.8,3.5-4.8,3.5c-2-1.8-3.8-3.5-5-5.9
			c-3.5,3-8.5,4.8-14,4.8c-9,0-15.7-4.1-15.7-13.5c0-9,8.9-13.2,17.1-14.6c2-0.3,7.5-0.5,10.5-0.5v-6.2c0-4.3-2.2-8.5-8.4-8.5
			c-5,0-9.3,2.5-11.6,7.4h-2.8L336.6,31.6L336.6,31.6z M359.4,53.8h-5c-6.3,0-10.4,3.6-10.4,9.6c0,4.4,3.2,7.1,6.8,7.1
			c2.8,0,6.4-1.8,8.6-4.9L359.4,53.8L359.4,53.8z"/>
		<path shape-rendering="optimizeQuality" d="M384.6,73.8c2.6-1.1,4.5-2,4.5-3.7v-28c0-2.7-1-4.1-5.3-5v-2.8l13.4-5.2h2.4l0.3,6.2
			c3.1-3.7,6.9-6.2,12.3-6.2c2.8,0,5.4,0.8,8.3,1.9v11h-2.8c-1.8-3.6-4.9-5.8-8.1-5.8c-5.9,0-9.1,5-9.1,9.6v24.3
			c0,1.8,1.8,2.6,4.7,3.7v2.8c-2.6,0-9.1-0.2-10.5-0.2s-7.7,0.2-10.2,0.2L384.6,73.8L384.6,73.8z"/>
		<path shape-rendering="optimizeQuality" d="M428.6,38.2c-1.3-2.9-2.5-3.9-5.8-5v-2.8c2.6,0,8.3,0.2,9.7,0.2s7.5-0.2,10.1-0.2v2.8
			c-2.7,0.3-3.1,1.8-3.1,2.6c0,0.9,0.8,2.3,1.1,3.1l10.8,24.3l10.5-24c0.6-1.2,0.6-2.5,0.3-3.4c-0.2-0.8-1.2-2.1-4.1-2.7v-2.8
			c2.5,0,7.4,0.2,8.7,0.2c1.3,0,6.3-0.2,8.7-0.2v2.8c-3.5,1.2-5.4,2.9-6.8,6.2l-17.1,38.3h-5L428.6,38.2z"/>
		<path shape-rendering="optimizeQuality" d="M483.9,31.6c5.1-1.5,10.2-2.5,16.9-2.5c14.1,0,17.5,7.2,17.5,14.8v22.6
			c0,2.5,0.5,3.4,1.3,3.4c0.8,0,2-0.1,3.1-0.9l1.3,2.9c0,0-3.2,1.7-5.5,3.1c-1.8,1.1-4.8,3.5-4.8,3.5c-2-1.8-3.8-3.5-5-5.9
			c-3.5,3-8.5,4.8-14,4.8c-9,0-15.7-4.1-15.7-13.5c0-9,8.9-13.2,17.1-14.6c2-0.3,7.5-0.5,10.5-0.5v-6.2c0-4.3-2.2-8.5-8.4-8.5
			c-5,0-9.3,2.5-11.6,7.4h-2.8L483.9,31.6L483.9,31.6z M506.7,53.8h-5c-6.3,0-10.4,3.6-10.4,9.6c0,4.4,3.2,7.1,6.8,7.1
			c2.8,0,6.4-1.8,8.6-4.9L506.7,53.8L506.7,53.8z"/>
		<path shape-rendering="optimizeQuality" d="M531.9,73.8c2.6-1.1,4.5-2,4.5-3.7v-28c0-2.7-1-4.1-5.3-5v-2.8l13.4-5.2h2.3l0.3,6.2
			c3.1-3.7,6.9-6.2,12.3-6.2c2.8,0,5.4,0.8,8.3,1.9v11h-2.8c-1.8-3.6-4.9-5.8-8.1-5.8c-5.9,0-9.1,5-9.1,9.6v24.3
			c0,1.8,1.8,2.6,4.7,3.7v2.8c-2.6,0-9.1-0.2-10.5-0.2s-7.7,0.2-10.2,0.2L531.9,73.8L531.9,73.8z"/>
		<path shape-rendering="optimizeQuality" d="M621.4,71.9c0,0-3.2,1.7-5.5,3.1c-1.8,1.1-4.8,3.5-4.8,3.5c-2-1.8-3.8-3.5-5-6.1
			c-3.7,3.1-9.6,4.9-16,4.9c-12.3,0-20.5-11.4-20.5-24c0-13.2,8.3-24.3,22.1-24.3c4.9,0,9.2,1.6,12.3,4.1v-20c0-2.8-0.9-4.4-5.2-5.3
			V5.2L612.7,0h2.8v66.5c0,2.5,0.6,3.4,1.5,3.4c0.8,0,2-0.1,3.1-0.9L621.4,71.9z M603.9,43.2c-0.7-4.7-5.5-8-11-8
			c-7.3,0-11.3,8.2-11.3,17c0,9.5,4.3,18.1,12.5,18.1c3.8,0,7.8-2.1,9.7-5.5L603.9,43.2L603.9,43.2z"/>
		<path shape-rendering="optimizeQuality" d="M663.3,73.8c3-0.8,4.8-3.4,4.8-5.6V12.9c0-2.1-1.7-4.7-4.8-5.6V4.5
			c1.9,0,8.8,0.2,10.5,0.2c1.9,0,9.1-0.2,11.1-0.2v2.8c-3,0.8-4.8,3.4-4.8,5.6v22.4h38.6V12.9c0-2.4-1.6-4.7-4.7-5.6V4.5
			c1.9,0,9.1,0.2,11,0.2c1.7,0,8.5-0.2,10.5-0.2v2.8c-3,0.8-4.8,3.4-4.8,5.6v55.3c0,2.1,1.7,4.7,4.8,5.6v2.8
			c-1.9,0-8.8-0.2-10.5-0.2c-1.9,0-9,0.2-11,0.2v-2.8c3-0.8,4.7-3.2,4.7-5.6V41.7h-38.6v26.5c0,2.2,1.6,4.7,4.8,5.6v2.8
			c-1.9,0-9.2-0.2-11.1-0.2c-1.7,0-8.5,0.2-10.5,0.2V73.8z"/>
		<path shape-rendering="optimizeQuality" d="M789.2,69.4c-3.2,3.7-8.5,7.9-17.8,7.9c-16.5,0-25.3-9.7-25.3-24.2
			c0-14.7,10.6-24.1,23.5-24.1c12.4,0,20.7,7.8,20.2,17.7c0,0.9-0.1,1.9-0.7,3.2h-30.7c-0.9,11.4,4.9,20.4,14.5,20.4
			c4.8,0,10-0.9,13.3-4.1L789.2,69.4z M777.6,44.9c0.2-4.7-1.7-10.8-8-10.8c-6.6,0-9.2,5.8-10.5,10.8H777.6z"/>
		<path shape-rendering="optimizeQuality" d="M802.3,31.6c5.2-1.5,10.2-2.5,16.9-2.5c14.1,0,17.5,7.2,17.5,14.8v22.6
			c0,2.5,0.5,3.4,1.3,3.4c0.8,0,2-0.1,3.1-0.9l1.3,2.9c0,0-3.2,1.7-5.5,3.1c-1.8,1.1-4.8,3.5-4.8,3.5c-2-1.8-3.8-3.5-5-5.9
			c-3.5,3-8.5,4.8-14,4.8c-9,0-15.7-4.1-15.7-13.5c0-9,8.8-13.2,17.1-14.6c2-0.3,7.5-0.5,10.5-0.5v-6.2c0-4.3-2.2-8.5-8.4-8.5
			c-5,0-9.3,2.5-11.7,7.4h-2.8L802.3,31.6L802.3,31.6z M825.1,53.8h-5c-6.3,0-10.4,3.6-10.4,9.6c0,4.4,3.2,7.1,6.8,7.1
			c2.8,0,6.4-1.8,8.6-4.9L825.1,53.8L825.1,53.8z"/>
		<path shape-rendering="optimizeQuality" d="M850.3,73.8c2.6-1.1,4.5-2.1,4.5-3.8V13.2c0-2.8-1-4.4-5.3-5.3V5.2l14-5.2h2.8v70
			c0,1.8,1.8,2.7,4.7,3.8v2.8c-2.6,0-9.1-0.2-10.5-0.2s-7.7,0.2-10.2,0.2L850.3,73.8L850.3,73.8z"/>
		<path shape-rendering="optimizeQuality" d="M884.3,35.3h-6.6v-3.7l6.6-1.9c2.8-2.6,4.9-6.8,5.9-12.7h5.6v12.9h13.3v5.4h-13.3v28.1
			c0,5.5,1.9,6.8,4,6.8c2.9,0,4.8-1.2,6.9-3.5l2.5,2.1c-1.7,3-6.3,8.5-12.9,8.5c-5.9,0-12.1-2.9-12.1-13.7L884.3,35.3L884.3,35.3z"
			/>
		<path shape-rendering="optimizeQuality" d="M917.3,73.8c2.6-1.1,4.5-2.1,4.5-3.8V13.2c0-2.8-1-4.4-5.3-5.3V5.2l14-5.2h2.8v34.5
			c3.9-3.2,8.7-5.4,14.6-5.4c11.2,0,16.7,6.7,16.7,14.7V70c0,1.8,1.8,2.7,4.7,3.8v2.8c-2.6,0-9.1-0.2-10.5-0.2s-7.7,0.2-10.2,0.2
			v-2.8c2.6-1.1,4.5-2.1,4.5-3.8V47.6c0-8-2.6-11.5-9.5-11.5c-3.9,0-7.6,1.8-10.2,5.8V70c0,1.8,1.8,2.7,4.7,3.8v2.8
			c-2.6,0-9.1-0.2-10.5-0.2s-7.7,0.2-10.2,0.2L917.3,73.8L917.3,73.8z"/>
		<path shape-rendering="optimizeQuality" d="M248.6,164.8c3.7-0.8,5.3-3.5,5.3-5.7v-55.2c0-2.1-1.5-4.7-5.4-5.6v-2.8
			c2.5,0,9.4,0.2,11.3,0.2c3.2,0,12.4-0.7,16.1-0.7c13,0,26.2,6.2,26.2,21.6c0,12.9-11.1,21.3-26.5,21.3c-3.6,0-6.8,0-9.7-0.3v21.5
			c0,2.2,1.7,4.8,5.5,5.7v2.8c-2.5,0-10-0.2-11.9-0.2c-1.7,0-8.3,0.2-10.9,0.2L248.6,164.8L248.6,164.8L248.6,164.8z M265.8,131.4
			c2,0.2,4.9,0.6,7.8,0.6c11.1,0,15.6-7.2,15.6-15.5c0-9.5-5.6-16.2-16.2-16.2c-2.1,0-4.9,0.2-7.2,0.7V131.4z"/>
		<path shape-rendering="optimizeQuality" d="M314.9,133.1c0-2.7-0.9-4.1-5.1-5v-2.8l13.9-5.2h2.8v28.2c0,7.6,1.5,13.1,8.3,13.1
			c4,0,7.7-2.4,10-4.6v-23.7c0-2.7-0.9-4.1-5.1-5v-2.8l13.9-5.2h2.8v37.4c0,2.5,0.5,3.4,1.3,3.4c0.8,0,2-0.1,3.1-0.9l1.3,2.9
			c0,0-3.5,1.7-5.7,3.1c-1.8,1.1-4.8,3.5-4.8,3.5c-2-1.8-4.6-4.1-5.5-7.3c-3.9,3.4-9.2,6.2-15.7,6.2c-10.3,0-15.5-6.5-15.5-14.1
			L314.9,133.1L314.9,133.1z"/>
		<path shape-rendering="optimizeQuality" d="M373.7,104.2c0-2.8-1-4.4-5.3-5.3v-2.8l14-5.2h2.8v34.5c3.9-3.2,8.9-5.4,14.7-5.4
			c13.7,0,20.9,11.4,20.9,23.1c0,14.4-10.9,25.4-24.4,25.4c-7.1,0-10.1-1.8-16-1.8c-1.8,0-4.6,0.3-7.4,0.8c0.3-5,0.7-6.3,0.7-12.5
			L373.7,104.2C373.6,104.2,373.7,104.2,373.7,104.2z M385.2,159.4c3,2.9,6.2,4.1,10.5,4.1c6.8,0,12.8-7.8,12.8-18.6
			c0-11.3-5.6-18.7-12.2-18.7c-4.3,0-8.1,2.4-11.1,6.6V159.4z"/>
		<path shape-rendering="optimizeQuality" d="M429.7,164.8c2.6-1.1,4.5-2.1,4.5-3.8v-56.8c0-2.8-1-4.4-5.3-5.3v-2.8l14-5.2h2.8v70
			c0,1.8,1.8,2.7,4.7,3.8v2.8c-2.6,0-9.1-0.2-10.5-0.2s-7.7,0.2-10.2,0.2V164.8z"/>
		<path shape-rendering="optimizeQuality" d="M459.6,164.8c2.6-1.1,4.5-2.1,4.5-3.8v-27.7c0-2.8-1-4.4-5.3-5.3v-2.8l14-5.2h2.8V161
			c0,1.8,1.8,2.7,4.7,3.8v2.8c-2.6,0-9.1-0.2-10.5-0.2s-7.7,0.2-10.2,0.2V164.8z M463.9,107.2c0-3.1,2.5-5.6,5.6-5.6
			s5.6,2.5,5.6,5.6s-2.5,5.6-5.6,5.6S463.9,110.4,463.9,107.2z"/>
		<path shape-rendering="optimizeQuality" d="M490,155.2h2.8c3.6,5.5,6.9,8.2,12.3,8.2c6.3,0,8.7-2.6,8.7-5.6c0-2.1-1-4-3-4.9
			l-13.9-6.5c-4.8-2.2-8-6.3-8-12c0-9.3,9.1-14.2,18.3-14.2c4.7,0,10.5,1.1,15.2,2.5V133h-2.8c-2.7-4.5-6.8-7.8-12.2-7.8
			c-5.1,0-7.8,3-7.8,6.2c0,2.9,1,4.8,4.4,6.4l14.1,6.5c2.8,1.3,6.2,5.1,6.2,10.5c0,8.5-7.7,13.7-19,13.7c-4.7,0-10.5-1.1-15.2-2.5
			L490,155.2L490,155.2z"/>
		<path shape-rendering="optimizeQuality" d="M534,164.8c2.6-1.1,4.5-2.1,4.5-3.8v-56.8c0-2.8-1-4.4-5.3-5.3v-2.8l14-5.2h2.8v34.5
			c3.9-3.2,8.7-5.4,14.6-5.4c11.2,0,16.7,6.7,16.7,14.7V161c0,1.8,1.8,2.7,4.7,3.8v2.8c-2.6,0-9.1-0.2-10.5-0.2s-7.7,0.2-10.2,0.2
			v-2.8c2.6-1.1,4.5-2.1,4.5-3.8v-22.4c0-7.9-2.6-11.5-9.5-11.5c-3.9,0-7.6,1.8-10.2,5.8V161c0,1.8,1.8,2.7,4.7,3.8v2.8
			c-2.6,0-9.1-0.2-10.5-0.2s-7.7,0.2-10.2,0.2L534,164.8L534,164.8z"/>
		<path shape-rendering="optimizeQuality" d="M594.4,164.8c2.6-1.1,4.5-2.1,4.5-3.8v-27.7c0-2.8-1-4.4-5.3-5.3v-2.8l14-5.2h2.8V161
			c0,1.8,1.8,2.7,4.7,3.8v2.8c-2.6,0-9.1-0.2-10.5-0.2s-7.7,0.2-10.2,0.2L594.4,164.8L594.4,164.8z M598.8,107.2
			c0-3.1,2.5-5.6,5.6-5.6s5.6,2.5,5.6,5.6s-2.5,5.6-5.6,5.6S598.8,110.4,598.8,107.2z"/>
		<path shape-rendering="optimizeQuality" d="M624.1,164.8c2.6-1.1,4.5-2.1,4.5-3.8v-27.7c0-2.8-1-4.4-5.3-5.3v-2.8l14-5.2h2.3
			l0.5,5.4c3.9-3.2,8.7-5.4,14.6-5.4c11.2,0,16.7,6.7,16.7,14.7V161c0,1.8,1.8,2.7,4.7,3.8v2.8c-2.6,0-9.1-0.2-10.5-0.2
			s-7.7,0.2-10.2,0.2v-2.8c2.6-1.1,4.5-2.1,4.5-3.8v-22.4c0-7.9-2.6-11.5-9.5-11.5c-3.9,0-7.6,1.8-10.2,5.8V161
			c0,1.8,1.8,2.7,4.7,3.8v2.8c-2.6,0-9.1-0.2-10.5-0.2s-7.7,0.2-10.2,0.2L624.1,164.8L624.1,164.8z"/>
		<path shape-rendering="optimizeQuality" d="M709,159.3c11.7,0,20.5,4.4,20.5,14.3c0,12.5-12.3,16.1-24.9,16.1
			c-10.9,0-22.3-2.8-22.3-12.7c0-4.7,4-8.7,9.3-10.9c-3-1.1-6.3-3-6.3-7.1c0-4,5-6.9,8.8-8.5c-5.5-2.9-8.8-8.1-8.8-14.8
			c0-8.3,7.7-15.8,20.9-15.8c3.1,0,6.9,0.7,10,2h16.3v5.4h-8.7c2.1,2.4,3.2,5.5,3.2,8.4c0,10.6-9,17.4-21.2,17.4
			c-2.3,0-4.5-0.2-6.5-0.7c-1.6,0.7-3.6,2.2-3.6,3.7c0,2.4,1.9,3,5.7,3L709,159.3L709,159.3z M700.1,167.8c-2.7,0-5.6,3-5.6,8.6
			c0,4.5,4.7,8.3,11.3,8.3c6.9,0,11.4-4.6,11.4-9.2c0-4.7-4.4-7.7-8.1-7.7H700.1z M714.9,136.4c0-6.3-3.1-11.2-8.8-11.2
			c-5.5,0-8.5,4.9-8.5,11.3c0,6.3,3,11.8,8.7,11.8S714.9,142.6,714.9,136.4z"/>
	</g>
	<g>
		<path d="M253.6,208.9h6v14.2h16.1v-14.2h6v35.5h-6v-15.8h-16.1v15.8h-6V208.9z"/>
		<path d="M301.6,208.8h5.9l12.6,35.7h-6.1l-2.9-8.4h-13.5l-2.9,8.4H289L301.6,208.8z M309.3,230.7l-4.9-14.4h-0.1l-4.9,14.4H309.3z
			"/>
		<path d="M327.3,208.9H340c8.5,0,13.4,3.4,13.4,10.7c0,5.7-2.9,8.9-7.9,10.1l8.4,14.8h-6.4l-8-14h-6.2v14h-5.9L327.3,208.9
			L327.3,208.9z M339.8,225.2c5,0,7.7-1.2,7.7-5.5c0-4.1-2.6-5.3-7.7-5.3h-6.5v10.8H339.8z"/>
		<path d="M358.5,208.9h6.1l9.2,27.7h0.1l9.3-27.7h5.7l-12.3,35.7h-5.7L358.5,208.9z"/>
		<path d="M402.9,208.8h5.9l12.6,35.7h-6.1l-2.9-8.4h-13.5l-2.9,8.4h-5.6L402.9,208.8z M410.6,230.7l-4.9-14.4h-0.1l-4.9,14.4H410.6
			z"/>
		<path d="M428.6,208.9h12.7c8.5,0,13.4,3.4,13.4,10.7c0,5.7-2.9,8.9-7.9,10.1l8.4,14.8h-6.4l-8-14h-6.2v14h-5.9L428.6,208.9
			L428.6,208.9z M441.1,225.2c5,0,7.7-1.2,7.7-5.5c0-4.1-2.6-5.3-7.7-5.3h-6.5v10.8H441.1z"/>
		<path d="M463.8,208.9H474c11.1,0,18.4,5.2,18.4,17.6c0,12.7-7.4,17.9-18.4,17.9h-10.1V208.9z M474.5,239.1
			c8.1,0,11.9-3.6,11.9-12.5c0-8.5-3.8-12.1-12-12.1h-4.6v24.6H474.5z"/>
		<path d="M514.8,208.9h7.9l9.5,28.2h0.1l9.2-28.2h8.1v35.5h-5.8v-26.5h-0.1c-0.5,2.4-1.3,4.8-2.1,7.2l-6.9,19.2h-5.3l-6.9-19.2
			c-0.9-2.5-1.4-4.1-2.2-7.5h-0.1v26.7h-5.4L514.8,208.9L514.8,208.9z"/>
		<path d="M559.7,208.9h23v5.6h-17v8.8h12.4v5.3h-12.4V239h17.9v5.5h-23.9V208.9z"/>
		<path d="M591.5,208.9h10.1c11.1,0,18.4,5.2,18.4,17.6c0,12.7-7.4,17.9-18.4,17.9h-10.1V208.9z M602.2,239.1
			c8.1,0,11.9-3.6,11.9-12.5c0-8.5-3.8-12.1-12-12.1h-4.6v24.6H602.2z"/>
		<path d="M628.9,208.9h6v35.5h-6V208.9z"/>
		<path d="M643.7,226.6c0-11.9,6.7-18.3,15.6-18.3c8.3,0,12.2,4.6,13.8,11l-5.7,1.6c-1.3-4.7-3.4-7.1-8.1-7.1c-6,0-9.5,4.7-9.5,12.7
			c0,8.4,3.6,13.1,9.6,13.1c4.6,0,7.2-2.3,8.5-7.6l5.7,1.3c-1.7,7.1-6.1,11.8-14.3,11.8C650.2,245.1,643.7,238.8,643.7,226.6z"/>
		<path d="M690.1,208.8h5.9l12.6,35.7h-6.1l-2.9-8.4h-13.5l-2.9,8.4h-5.6L690.1,208.8z M697.8,230.7l-4.8-14.4h-0.1l-4.9,14.4H697.8
			z"/>
		<path d="M715.9,208.9h6V239h16.4v5.5h-22.4V208.9z"/>
		<path d="M755.9,236.1l4.8-2.5c2.1,4.2,5.4,6.2,9.8,6.2c4.3,0,7.2-1.4,7.2-4.6c0-3.1-2.2-4.5-8.1-6.2c-6.9-2-12.4-3.9-12.4-10.7
			c0-6.1,4.9-10,12.2-10c7,0,11.1,3.5,13.3,7.6l-4.4,3c-2.1-3.6-5.1-5.2-9-5.2c-3.9,0-6.2,1.4-6.2,4c0,3.3,2.5,4.4,8.3,6.1
			c6.7,2,12.1,4.2,12.1,10.9c0,5.8-4.9,10.4-13.4,10.4C763.1,245.1,758.2,241.4,755.9,236.1z"/>
		<path d="M789.9,226.6c0-11.9,6.7-18.3,15.6-18.3c8.3,0,12.2,4.6,13.8,11l-5.7,1.6c-1.3-4.7-3.4-7.1-8.1-7.1c-6,0-9.5,4.7-9.5,12.7
			c0,8.4,3.6,13.1,9.6,13.1c4.6,0,7.2-2.3,8.5-7.6l5.7,1.3c-1.7,7.1-6.1,11.8-14.3,11.8C796.4,245.1,789.9,238.8,789.9,226.6z"/>
		<path d="M828.1,208.9h6v14.2h16.1v-14.2h6v35.5h-6v-15.8h-16.1v15.8h-6V208.9z"/>
		<path d="M864.6,226.7c0-11.9,7.1-18.4,16.1-18.4c9,0,16,6.5,16,18.4s-7,18.4-16,18.4C871.6,245.1,864.6,238.6,864.6,226.7z
			 M890.6,226.7c0-8.4-4-12.9-9.9-12.9c-6,0-10,4.6-10,12.9s4,13,10,13C886.6,239.7,890.6,235,890.6,226.7z"/>
		<path d="M903.2,226.7c0-11.9,7.1-18.4,16.1-18.4c9,0,16,6.5,16,18.4s-7,18.4-16,18.4C910.3,245.1,903.2,238.6,903.2,226.7z
			 M929.3,226.7c0-8.4-4-12.9-9.9-12.9c-6,0-10,4.6-10,12.9s4,13,10,13C925.3,239.7,929.3,235,929.3,226.7z"/>
		<path d="M943.7,208.9h6V239H966v5.5h-22.4V208.9z"/>
	</g>
</g>
</svg>
